<?xml version="1.0" encoding="utf-8" standalone="no"?>
<!DOCTYPE svg PUBLIC "-//W3C//DTD SVG 1.1//EN"
  "http://www.w3.org/Graphics/SVG/1.1/DTD/svg11.dtd">
<!-- Created with matplotlib (https://matplotlib.org/) -->
<svg height="864pt" version="1.1" viewBox="0 0 864 864" width="864pt" xmlns="http://www.w3.org/2000/svg" xmlns:xlink="http://www.w3.org/1999/xlink">
 <metadata>
  <rdf:RDF xmlns:cc="http://creativecommons.org/ns#" xmlns:dc="http://purl.org/dc/elements/1.1/" xmlns:rdf="http://www.w3.org/1999/02/22-rdf-syntax-ns#">
   <cc:Work>
    <dc:type rdf:resource="http://purl.org/dc/dcmitype/StillImage"/>
    <dc:date>2021-06-09T15:24:50.137656</dc:date>
    <dc:format>image/svg+xml</dc:format>
    <dc:creator>
     <cc:Agent>
      <dc:title>Matplotlib v3.3.4, https://matplotlib.org/</dc:title>
     </cc:Agent>
    </dc:creator>
   </cc:Work>
  </rdf:RDF>
 </metadata>
 <defs>
  <style type="text/css">*{stroke-linecap:butt;stroke-linejoin:round;}</style>
 </defs>
 <g id="figure_1">
  <g id="patch_1">
   <path d="M 0 864 
L 864 864 
L 864 0 
L 0 0 
z
" style="fill:#ffffff;"/>
  </g>
  <g id="axes_1">
   <g id="matplotlib.axis_1"/>
   <g id="matplotlib.axis_2"/>
   <g id="patch_2">
    <path clip-path="url(#p232828333f)" d="M 428.228303 394.70328 
C 376.886375 351.622287 316.942704 323.048958 261.59919 315.276237 
C 206.255675 307.503515 160.030869 321.16601 133.105248 353.254715 
C 106.179628 385.34342 100.75155 433.238435 118.016487 486.391439 
C 135.281423 539.544442 173.829769 593.615727 225.171697 636.69672 
C 276.513625 679.777713 336.457296 708.351042 391.80081 716.123763 
C 447.144325 723.896485 493.369131 710.23399 520.294752 678.145285 
C 547.220372 646.05658 552.64845 598.161565 535.383513 545.008561 
C 518.118577 491.855558 479.570231 437.784273 428.228303 394.70328 
z
" style="fill:#440154;fill-opacity:0.4;stroke:#440154;stroke-linejoin:miter;stroke-opacity:0.7;"/>
   </g>
   <g id="patch_3">
    <path clip-path="url(#p232828333f)" d="M 498.428303 324.50328 
C 447.086375 281.422287 387.142704 252.848958 331.79919 245.076237 
C 276.455675 237.303515 230.230869 250.96601 203.305248 283.054715 
C 176.379628 315.14342 170.95155 363.038435 188.216487 416.191439 
C 205.481423 469.344442 244.029769 523.415727 295.371697 566.49672 
C 346.713625 609.577713 406.657296 638.151042 462.00081 645.923763 
C 517.344325 653.696485 563.569131 640.03399 590.494752 607.945285 
C 617.420372 575.85658 622.84845 527.961565 605.583513 474.808561 
C 588.318577 421.655558 549.770231 367.584273 498.428303 324.50328 
z
" style="fill:#31688e;fill-opacity:0.4;stroke:#31688e;stroke-linejoin:miter;stroke-opacity:0.7;"/>
   </g>
   <g id="patch_4">
    <path clip-path="url(#p232828333f)" d="M 564.416303 566.49672 
C 615.758231 523.415727 654.306577 469.344442 671.571513 416.191439 
C 688.83645 363.038435 683.408372 315.14342 656.482752 283.054715 
C 629.557131 250.96601 583.332325 237.303515 527.98881 245.076237 
C 472.645296 252.848958 412.701625 281.422287 361.359697 324.50328 
C 310.017769 367.584273 271.469423 421.655558 254.204487 474.808561 
C 236.93955 527.961565 242.367628 575.85658 269.293248 607.945285 
C 296.218869 640.03399 342.443675 653.696485 397.78719 645.923763 
C 453.130704 638.151042 513.074375 609.577713 564.416303 566.49672 
z
" style="fill:#35b779;fill-opacity:0.4;stroke:#35b779;stroke-linejoin:miter;stroke-opacity:0.7;"/>
   </g>
   <g id="patch_5">
    <path clip-path="url(#p232828333f)" d="M 634.616303 636.69672 
C 685.958231 593.615727 724.506577 539.544442 741.771513 486.391439 
C 759.03645 433.238435 753.608372 385.34342 726.682752 353.254715 
C 699.757131 321.16601 653.532325 307.503515 598.18881 315.276237 
C 542.845296 323.048958 482.901625 351.622287 431.559697 394.70328 
C 380.217769 437.784273 341.669423 491.855558 324.404487 545.008561 
C 307.13955 598.161565 312.567628 646.05658 339.493248 678.145285 
C 366.418869 710.23399 412.643675 723.896485 467.98719 716.123763 
C 523.330704 708.351042 583.274375 679.777713 634.616303 636.69672 
z
" style="fill:#fde725;fill-opacity:0.4;stroke:#fde725;stroke-linejoin:miter;stroke-opacity:0.7;"/>
   </g>
   <g id="text_1">
    <!-- 0 -->
    <g transform="translate(674.126016 504.843984)scale(0.13 -0.13)">
     <defs>
      <path d="M 50.6875 31.890625 
Q 50.6875 24.5625 49.21875 18.53125 
Q 47.75 12.5 44.765625 8.171875 
Q 41.796875 3.859375 37.375 1.484375 
Q 32.953125 -0.875 27 -0.875 
Q 21.875 -0.875 17.671875 1.046875 
Q 13.484375 2.984375 10.5 6.984375 
Q 7.515625 10.984375 5.90625 17.1875 
Q 4.296875 23.390625 4.296875 31.890625 
Q 4.296875 39.203125 5.78125 45.25 
Q 7.28125 51.3125 10.234375 55.640625 
Q 13.1875 59.96875 17.625 62.328125 
Q 22.078125 64.703125 27.984375 64.703125 
Q 33.109375 64.703125 37.296875 62.765625 
Q 41.5 60.84375 44.484375 56.8125 
Q 47.46875 52.78125 49.078125 46.578125 
Q 50.6875 40.375 50.6875 31.890625 
z
M 42.09375 31.59375 
Q 42.09375 33.25 41.96875 34.890625 
Q 41.84375 36.53125 41.703125 38.09375 
L 14.703125 18.015625 
Q 15.4375 15.484375 16.546875 13.328125 
Q 17.671875 11.1875 19.25 9.640625 
Q 20.84375 8.109375 22.875 7.25 
Q 24.90625 6.390625 27.484375 6.390625 
Q 30.8125 6.390625 33.515625 8 
Q 36.234375 9.625 38.140625 12.796875 
Q 40.046875 15.96875 41.0625 20.671875 
Q 42.09375 25.390625 42.09375 31.59375 
z
M 12.890625 32.171875 
Q 12.890625 30.671875 12.90625 29.15625 
Q 12.9375 27.640625 13.09375 26.21875 
L 40.09375 46.1875 
Q 39.359375 48.6875 38.234375 50.734375 
Q 37.109375 52.78125 35.546875 54.265625 
Q 33.984375 55.765625 31.984375 56.59375 
Q 29.984375 57.421875 27.484375 57.421875 
Q 24.171875 57.421875 21.453125 55.8125 
Q 18.75 54.203125 16.84375 51 
Q 14.9375 47.796875 13.90625 43.078125 
Q 12.890625 38.375 12.890625 32.171875 
z
" id="Consolas-48"/>
     </defs>
     <use xlink:href="#Consolas-48"/>
    </g>
   </g>
   <g id="text_2">
    <!-- 0 -->
    <g transform="translate(554.786016 294.243984)scale(0.13 -0.13)">
     <use xlink:href="#Consolas-48"/>
    </g>
   </g>
   <g id="text_3">
    <!-- 1 -->
    <g transform="translate(617.966016 385.503984)scale(0.13 -0.13)">
     <defs>
      <path d="M 48.6875 0 
L 8.59375 0 
L 8.59375 7.90625 
L 25 7.90625 
L 25 54.5 
L 9.71875 46.1875 
L 6.59375 53.421875 
L 26.90625 64.109375 
L 34.421875 64.109375 
L 34.421875 7.90625 
L 48.6875 7.90625 
z
" id="Consolas-49"/>
     </defs>
     <use xlink:href="#Consolas-49"/>
    </g>
   </g>
   <g id="text_4">
    <!-- 81 -->
    <g transform="translate(298.492031 294.243984)scale(0.13 -0.13)">
     <defs>
      <path d="M 49.21875 16.015625 
Q 49.21875 11.96875 47.5625 8.8125 
Q 45.90625 5.671875 42.921875 3.515625 
Q 39.9375 1.375 35.890625 0.25 
Q 31.84375 -0.875 27.09375 -0.875 
Q 21.875 -0.875 17.890625 0.296875 
Q 13.921875 1.46875 11.234375 3.5625 
Q 8.546875 5.671875 7.171875 8.546875 
Q 5.8125 11.421875 5.8125 14.890625 
Q 5.8125 20.75 9.078125 25 
Q 12.359375 29.25 19.1875 32.71875 
Q 12.9375 35.890625 10.046875 39.765625 
Q 7.171875 43.65625 7.171875 48.6875 
Q 7.171875 51.765625 8.4375 54.640625 
Q 9.71875 57.515625 12.28125 59.765625 
Q 14.84375 62.015625 18.703125 63.359375 
Q 22.5625 64.703125 27.78125 64.703125 
Q 32.71875 64.703125 36.453125 63.640625 
Q 40.1875 62.59375 42.71875 60.640625 
Q 45.265625 58.6875 46.53125 55.90625 
Q 47.796875 53.125 47.796875 49.703125 
Q 47.796875 44.140625 44.703125 40.234375 
Q 41.609375 36.328125 35.890625 33.40625 
Q 38.71875 31.984375 41.15625 30.265625 
Q 43.609375 28.5625 45.40625 26.453125 
Q 47.21875 24.359375 48.21875 21.765625 
Q 49.21875 19.1875 49.21875 16.015625 
z
M 39.109375 49.03125 
Q 39.109375 53.375 36.0625 55.5 
Q 33.015625 57.625 27.484375 57.625 
Q 22.015625 57.625 18.96875 55.515625 
Q 15.921875 53.421875 15.921875 49.21875 
Q 15.921875 47.3125 16.65625 45.703125 
Q 17.390625 44.09375 18.921875 42.671875 
Q 20.453125 41.265625 22.75 39.890625 
Q 25.046875 38.53125 28.21875 37.109375 
Q 33.734375 39.703125 36.421875 42.5 
Q 39.109375 45.3125 39.109375 49.03125 
z
M 39.984375 15.375 
Q 39.984375 17.1875 39.390625 18.890625 
Q 38.8125 20.609375 37.296875 22.265625 
Q 35.796875 23.921875 33.25 25.578125 
Q 30.71875 27.25 26.8125 29 
Q 23.484375 27.390625 21.21875 25.796875 
Q 18.953125 24.21875 17.546875 22.578125 
Q 16.15625 20.953125 15.5625 19.1875 
Q 14.984375 17.4375 14.984375 15.484375 
Q 14.984375 13.28125 15.9375 11.59375 
Q 16.890625 9.90625 18.546875 8.734375 
Q 20.21875 7.5625 22.515625 6.96875 
Q 24.8125 6.390625 27.484375 6.390625 
Q 30.078125 6.390625 32.375 6.921875 
Q 34.671875 7.46875 36.34375 8.5625 
Q 38.03125 9.671875 39 11.34375 
Q 39.984375 13.03125 39.984375 15.375 
z
" id="Consolas-56"/>
     </defs>
     <use xlink:href="#Consolas-56"/>
     <use x="54.980469" xlink:href="#Consolas-49"/>
    </g>
   </g>
   <g id="text_5">
    <!-- 0 -->
    <g transform="translate(575.846016 589.083984)scale(0.13 -0.13)">
     <use xlink:href="#Consolas-48"/>
    </g>
   </g>
   <g id="text_6">
    <!-- 2 -->
    <g transform="translate(428.426016 336.363984)scale(0.13 -0.13)">
     <defs>
      <path d="M 49.21875 0 
L 7.171875 0 
L 7.171875 7.625 
L 23.6875 24.03125 
Q 27.734375 28.03125 30.265625 30.953125 
Q 32.8125 33.890625 34.21875 36.296875 
Q 35.640625 38.71875 36.125 40.859375 
Q 36.625 43.015625 36.625 45.515625 
Q 36.625 47.859375 35.984375 49.96875 
Q 35.359375 52.09375 34.03125 53.703125 
Q 32.71875 55.328125 30.609375 56.25 
Q 28.515625 57.171875 25.59375 57.171875 
Q 21.53125 57.171875 18.203125 55.359375 
Q 14.890625 53.5625 12.109375 50.6875 
L 7.421875 56.296875 
Q 11.03125 60.109375 15.734375 62.40625 
Q 20.453125 64.703125 26.703125 64.703125 
Q 30.953125 64.703125 34.4375 63.421875 
Q 37.9375 62.15625 40.46875 59.765625 
Q 43.015625 57.375 44.40625 53.90625 
Q 45.796875 50.4375 45.796875 46.09375 
Q 45.796875 42.4375 44.8125 39.3125 
Q 43.84375 36.1875 41.859375 33.078125 
Q 39.890625 29.984375 36.890625 26.65625 
Q 33.890625 23.34375 29.78125 19.390625 
L 18.21875 8.109375 
L 49.21875 8.109375 
z
" id="Consolas-50"/>
     </defs>
     <use xlink:href="#Consolas-50"/>
    </g>
   </g>
   <g id="text_7">
    <!-- 1 -->
    <g transform="translate(533.726016 448.683984)scale(0.13 -0.13)">
     <use xlink:href="#Consolas-49"/>
    </g>
   </g>
   <g id="text_8">
    <!-- 401 -->
    <g transform="translate(168.558047 504.843984)scale(0.13 -0.13)">
     <defs>
      <path d="M 52.390625 14.109375 
L 41.5 14.109375 
L 41.5 0 
L 32.8125 0 
L 32.8125 14.109375 
L 2.09375 14.109375 
L 2.09375 21.578125 
L 29.296875 63.8125 
L 41.5 63.8125 
L 41.5 21.578125 
L 52.390625 21.578125 
z
M 32.8125 55.609375 
L 10.59375 21.578125 
L 32.8125 21.578125 
z
" id="Consolas-52"/>
     </defs>
     <use xlink:href="#Consolas-52"/>
     <use x="54.980469" xlink:href="#Consolas-48"/>
     <use x="109.960938" xlink:href="#Consolas-49"/>
    </g>
   </g>
   <g id="text_9">
    <!-- 0 -->
    <g transform="translate(428.426016 680.343984)scale(0.13 -0.13)">
     <use xlink:href="#Consolas-48"/>
    </g>
   </g>
   <g id="text_10">
    <!-- 2 -->
    <g transform="translate(281.006016 589.083984)scale(0.13 -0.13)">
     <use xlink:href="#Consolas-50"/>
    </g>
   </g>
   <g id="text_11">
    <!-- 10 -->
    <g transform="translate(347.632031 631.203984)scale(0.13 -0.13)">
     <use xlink:href="#Consolas-49"/>
     <use x="54.980469" xlink:href="#Consolas-48"/>
    </g>
   </g>
   <g id="text_12">
    <!-- 35 -->
    <g transform="translate(235.312031 385.503984)scale(0.13 -0.13)">
     <defs>
      <path d="M 48 19.390625 
Q 48 15.1875 46.28125 11.5 
Q 44.578125 7.8125 41.15625 5.046875 
Q 37.75 2.296875 32.5625 0.703125 
Q 27.390625 -0.875 20.515625 -0.875 
Q 16.703125 -0.875 13.671875 -0.625 
Q 10.640625 -0.390625 8.015625 0 
L 8.015625 7.625 
Q 11.03125 7.078125 14.40625 6.78125 
Q 17.78125 6.5 21.296875 6.5 
Q 26.078125 6.5 29.46875 7.34375 
Q 32.859375 8.203125 35 9.8125 
Q 37.15625 11.421875 38.125 13.71875 
Q 39.109375 16.015625 39.109375 18.890625 
Q 39.109375 21.53125 37.9375 23.484375 
Q 36.765625 25.4375 34.640625 26.75 
Q 32.515625 28.078125 29.5625 28.734375 
Q 26.609375 29.390625 23.09375 29.390625 
L 15.828125 29.390625 
L 15.828125 36.375 
L 23.1875 36.375 
Q 26.078125 36.375 28.4375 37.125 
Q 30.8125 37.890625 32.5 39.296875 
Q 34.1875 40.71875 35.078125 42.796875 
Q 35.984375 44.875 35.984375 47.515625 
Q 35.984375 52.640625 32.859375 54.984375 
Q 29.734375 57.328125 23.6875 57.328125 
Q 20.453125 57.328125 17.03125 56.6875 
Q 13.625 56.0625 9.71875 54.78125 
L 9.71875 62.203125 
Q 11.375 62.796875 13.25 63.25 
Q 15.140625 63.71875 17.015625 64.03125 
Q 18.890625 64.359375 20.75 64.53125 
Q 22.609375 64.703125 24.3125 64.703125 
Q 29.390625 64.703125 33.25 63.59375 
Q 37.109375 62.5 39.6875 60.453125 
Q 42.28125 58.40625 43.59375 55.46875 
Q 44.921875 52.546875 44.921875 48.875 
Q 44.921875 43.40625 42.109375 39.6875 
Q 39.3125 35.984375 34.421875 33.796875 
Q 36.921875 33.40625 39.328125 32.234375 
Q 41.75 31.0625 43.671875 29.21875 
Q 45.609375 27.390625 46.796875 24.890625 
Q 48 22.40625 48 19.390625 
z
" id="Consolas-51"/>
      <path d="M 47.609375 20.40625 
Q 47.609375 15.671875 45.546875 11.765625 
Q 43.5 7.859375 39.90625 5.046875 
Q 36.328125 2.25 31.4375 0.6875 
Q 26.5625 -0.875 20.90625 -0.875 
Q 19.484375 -0.875 17.84375 -0.796875 
Q 16.21875 -0.734375 14.59375 -0.609375 
Q 12.984375 -0.484375 11.4375 -0.34375 
Q 9.90625 -0.203125 8.6875 0 
L 8.6875 7.71875 
Q 11.328125 7.078125 14.71875 6.78125 
Q 18.109375 6.5 21.578125 6.5 
Q 25.484375 6.5 28.609375 7.421875 
Q 31.734375 8.34375 33.9375 10.078125 
Q 36.140625 11.8125 37.3125 14.28125 
Q 38.484375 16.75 38.484375 19.828125 
Q 38.484375 25.78125 34.203125 28.484375 
Q 29.9375 31.203125 21.921875 31.203125 
L 9.8125 31.203125 
L 9.8125 63.8125 
L 44.1875 63.8125 
L 44.1875 56.390625 
L 17.828125 56.390625 
L 17.828125 38.484375 
L 23.390625 38.484375 
Q 27.984375 38.484375 32.328125 37.640625 
Q 36.671875 36.8125 40.0625 34.734375 
Q 43.453125 32.671875 45.53125 29.171875 
Q 47.609375 25.6875 47.609375 20.40625 
z
" id="Consolas-53"/>
     </defs>
     <use xlink:href="#Consolas-51"/>
     <use x="54.980469" xlink:href="#Consolas-53"/>
    </g>
   </g>
   <g id="text_13">
    <!-- 1 -->
    <g transform="translate(505.646016 631.203984)scale(0.13 -0.13)">
     <use xlink:href="#Consolas-49"/>
    </g>
   </g>
   <g id="text_14">
    <!-- 273 -->
    <g transform="translate(315.978047 448.683984)scale(0.13 -0.13)">
     <defs>
      <path d="M 48.875 55.90625 
L 22.125 0 
L 12.40625 0 
L 40.1875 55.90625 
L 5.71875 55.90625 
L 5.71875 63.8125 
L 48.875 63.8125 
z
" id="Consolas-55"/>
     </defs>
     <use xlink:href="#Consolas-50"/>
     <use x="54.980469" xlink:href="#Consolas-55"/>
     <use x="109.960938" xlink:href="#Consolas-51"/>
    </g>
   </g>
   <g id="text_15">
    <!-- 561 -->
    <g transform="translate(421.278047 532.923984)scale(0.13 -0.13)">
     <defs>
      <path d="M 50 20.21875 
Q 50 15.828125 48.40625 11.96875 
Q 46.828125 8.109375 43.890625 5.25 
Q 40.96875 2.390625 36.84375 0.75 
Q 32.71875 -0.875 27.6875 -0.875 
Q 22.40625 -0.875 18.359375 0.796875 
Q 14.3125 2.484375 11.578125 5.96875 
Q 8.84375 9.46875 7.421875 14.796875 
Q 6 20.125 6 27.390625 
Q 6 32.28125 6.640625 36.859375 
Q 7.28125 41.453125 8.734375 45.5 
Q 10.203125 49.5625 12.640625 52.921875 
Q 15.09375 56.296875 18.71875 58.71875 
Q 22.359375 61.140625 27.296875 62.46875 
Q 32.234375 63.8125 38.71875 63.8125 
L 45.015625 63.8125 
L 45.015625 56.390625 
L 38.1875 56.390625 
Q 32.46875 56.390625 28.265625 55.015625 
Q 24.078125 53.65625 21.234375 51.171875 
Q 18.40625 48.6875 16.890625 45.171875 
Q 15.375 41.65625 14.984375 37.3125 
L 14.796875 35.296875 
Q 17.875 37.109375 21.890625 38.203125 
Q 25.921875 39.3125 30.609375 39.3125 
Q 35.453125 39.3125 39.078125 37.890625 
Q 42.71875 36.46875 45.140625 33.953125 
Q 47.5625 31.453125 48.78125 27.9375 
Q 50 24.421875 50 20.21875 
z
M 41.109375 19.671875 
Q 41.109375 22.609375 40.40625 24.96875 
Q 39.703125 27.34375 38.1875 28.96875 
Q 36.671875 30.609375 34.34375 31.515625 
Q 32.03125 32.421875 28.8125 32.421875 
Q 26.953125 32.421875 25.046875 32.078125 
Q 23.140625 31.734375 21.3125 31.125 
Q 19.484375 30.515625 17.8125 29.734375 
Q 16.15625 28.953125 14.796875 28.078125 
Q 14.796875 21.78125 15.671875 17.546875 
Q 16.546875 13.328125 18.28125 10.78125 
Q 20.015625 8.25 22.546875 7.171875 
Q 25.09375 6.109375 28.421875 6.109375 
Q 31.203125 6.109375 33.515625 7 
Q 35.84375 7.90625 37.515625 9.65625 
Q 39.203125 11.421875 40.15625 13.9375 
Q 41.109375 16.453125 41.109375 19.671875 
z
" id="Consolas-54"/>
     </defs>
     <use xlink:href="#Consolas-53"/>
     <use x="54.980469" xlink:href="#Consolas-54"/>
     <use x="109.960938" xlink:href="#Consolas-49"/>
    </g>
   </g>
   <g id="text_16">
    <!-- Chevauchement entre les sources -->
    <g style="fill:#262626;" transform="translate(176.322656 53.4)scale(0.3 -0.3)">
     <defs>
      <path d="M 48.578125 2.390625 
Q 40.921875 -0.78125 32.515625 -0.78125 
Q 19 -0.78125 11.75 7.296875 
Q 4.5 15.375 4.5 31.203125 
Q 4.5 38.875 6.5 45.0625 
Q 8.5 51.265625 12.203125 55.578125 
Q 15.921875 59.90625 21.1875 62.25 
Q 26.46875 64.59375 33.015625 64.59375 
Q 37.453125 64.59375 41.25 63.84375 
Q 45.0625 63.09375 48.578125 61.53125 
L 48.578125 52.984375 
Q 45.125 54.890625 41.40625 55.890625 
Q 37.703125 56.890625 33.296875 56.890625 
Q 28.8125 56.890625 25.171875 55.203125 
Q 21.53125 53.515625 18.984375 50.3125 
Q 16.453125 47.125 15.078125 42.5 
Q 13.71875 37.890625 13.71875 31.984375 
Q 13.71875 19.578125 18.75 13.28125 
Q 23.78125 6.984375 33.5 6.984375 
Q 37.59375 6.984375 41.359375 7.9375 
Q 45.125 8.890625 48.578125 10.59375 
z
" id="Consolas-67"/>
      <path d="M 47.21875 0 
L 38.71875 0 
L 38.71875 31.296875 
Q 38.71875 36.96875 36.59375 39.765625 
Q 34.46875 42.578125 30.515625 42.578125 
Q 28.8125 42.578125 27.3125 42.109375 
Q 25.828125 41.65625 24.21875 40.5 
Q 22.609375 39.359375 20.703125 37.40625 
Q 18.796875 35.453125 16.3125 32.515625 
L 16.3125 0 
L 7.8125 0 
L 7.8125 69 
L 16.3125 69 
L 16.3125 49.03125 
L 16.015625 41.3125 
Q 18.015625 43.703125 19.9375 45.328125 
Q 21.875 46.96875 23.796875 48 
Q 25.734375 49.03125 27.734375 49.46875 
Q 29.734375 49.90625 31.890625 49.90625 
Q 39.203125 49.90625 43.203125 45.4375 
Q 47.21875 40.96875 47.21875 31.984375 
z
" id="Consolas-104"/>
      <path d="M 49.21875 27.09375 
Q 49.21875 25.296875 49.171875 24.078125 
Q 49.125 22.859375 49.03125 21.78125 
L 14.59375 21.78125 
Q 14.59375 14.265625 18.796875 10.234375 
Q 23 6.203125 30.90625 6.203125 
Q 33.0625 6.203125 35.203125 6.375 
Q 37.359375 6.546875 39.359375 6.828125 
Q 41.359375 7.125 43.1875 7.484375 
Q 45.015625 7.859375 46.578125 8.296875 
L 46.578125 1.3125 
Q 43.109375 0.34375 38.734375 -0.265625 
Q 34.375 -0.875 29.6875 -0.875 
Q 23.390625 -0.875 18.84375 0.828125 
Q 14.3125 2.546875 11.40625 5.78125 
Q 8.5 9.03125 7.109375 13.734375 
Q 5.71875 18.453125 5.71875 24.421875 
Q 5.71875 29.59375 7.203125 34.203125 
Q 8.6875 38.8125 11.546875 42.296875 
Q 14.40625 45.796875 18.546875 47.84375 
Q 22.703125 49.90625 27.984375 49.90625 
Q 33.109375 49.90625 37.0625 48.296875 
Q 41.015625 46.6875 43.71875 43.71875 
Q 46.4375 40.765625 47.828125 36.546875 
Q 49.21875 32.328125 49.21875 27.09375 
z
M 40.375 28.328125 
Q 40.53125 31.59375 39.75 34.296875 
Q 38.96875 37.015625 37.328125 38.96875 
Q 35.6875 40.921875 33.25 42.015625 
Q 30.8125 43.109375 27.59375 43.109375 
Q 24.8125 43.109375 22.515625 42.03125 
Q 20.21875 40.96875 18.546875 39.015625 
Q 16.890625 37.0625 15.859375 34.328125 
Q 14.84375 31.59375 14.59375 28.328125 
z
" id="Consolas-101"/>
      <path d="M 3.21875 49.03125 
L 12.890625 49.03125 
L 24.90625 16.609375 
L 27.484375 8.6875 
L 30.171875 16.796875 
L 42.09375 49.03125 
L 51.421875 49.03125 
L 32.171875 0 
L 22.40625 0 
z
" id="Consolas-118"/>
      <path d="M 39.3125 0 
L 39.109375 6.59375 
Q 35.109375 2.640625 30.984375 0.875 
Q 26.859375 -0.875 22.3125 -0.875 
Q 18.109375 -0.875 15.125 0.1875 
Q 12.15625 1.265625 10.21875 3.140625 
Q 8.296875 5.03125 7.390625 7.5625 
Q 6.5 10.109375 6.5 13.09375 
Q 6.5 20.453125 11.984375 24.625 
Q 17.484375 28.8125 28.21875 28.8125 
L 38.375 28.8125 
L 38.375 33.109375 
Q 38.375 37.453125 35.59375 40.0625 
Q 32.8125 42.671875 27.09375 42.671875 
Q 22.953125 42.671875 18.921875 41.75 
Q 14.890625 40.828125 10.59375 39.109375 
L 10.59375 46.78125 
Q 12.203125 47.359375 14.171875 47.921875 
Q 16.15625 48.484375 18.359375 48.921875 
Q 20.5625 49.359375 22.953125 49.625 
Q 25.34375 49.90625 27.78125 49.90625 
Q 32.234375 49.90625 35.796875 48.921875 
Q 39.359375 47.953125 41.8125 45.953125 
Q 44.28125 43.953125 45.59375 40.921875 
Q 46.921875 37.890625 46.921875 33.796875 
L 46.921875 0 
z
M 38.375 22.3125 
L 27.59375 22.3125 
Q 24.421875 22.3125 22.125 21.671875 
Q 19.828125 21.046875 18.359375 19.875 
Q 16.890625 18.703125 16.1875 17.0625 
Q 15.484375 15.4375 15.484375 13.375 
Q 15.484375 11.96875 15.921875 10.671875 
Q 16.359375 9.375 17.328125 8.375 
Q 18.3125 7.375 19.875 6.78125 
Q 21.4375 6.203125 23.6875 6.203125 
Q 26.609375 6.203125 30.390625 7.984375 
Q 34.1875 9.765625 38.375 13.625 
z
" id="Consolas-97"/>
      <path d="M 47.21875 0 
L 39.59375 0 
L 39.3125 7.90625 
Q 37.109375 5.375 35.125 3.6875 
Q 33.15625 2 31.203125 0.96875 
Q 29.25 -0.046875 27.265625 -0.453125 
Q 25.296875 -0.875 23.09375 -0.875 
Q 15.53125 -0.875 11.671875 3.5625 
Q 7.8125 8.015625 7.8125 17 
L 7.8125 49.03125 
L 16.3125 49.03125 
L 16.3125 17.671875 
Q 16.3125 6.390625 24.8125 6.390625 
Q 26.375 6.390625 27.859375 6.859375 
Q 29.34375 7.328125 30.984375 8.46875 
Q 32.625 9.625 34.5 11.578125 
Q 36.375 13.53125 38.71875 16.5 
L 38.71875 49.03125 
L 47.21875 49.03125 
z
" id="Consolas-117"/>
      <path d="M 45.90625 1.8125 
Q 42.578125 0.53125 39.078125 -0.078125 
Q 35.59375 -0.6875 31.890625 -0.6875 
Q 20.265625 -0.6875 13.984375 5.609375 
Q 7.71875 11.921875 7.71875 24.03125 
Q 7.71875 29.828125 9.515625 34.5625 
Q 11.328125 39.3125 14.59375 42.671875 
Q 17.875 46.046875 22.40625 47.875 
Q 26.953125 49.703125 32.421875 49.703125 
Q 36.234375 49.703125 39.546875 49.171875 
Q 42.875 48.640625 45.90625 47.40625 
L 45.90625 39.3125 
Q 42.71875 40.96875 39.421875 41.71875 
Q 36.140625 42.484375 32.625 42.484375 
Q 29.34375 42.484375 26.4375 41.234375 
Q 23.53125 39.984375 21.328125 37.640625 
Q 19.140625 35.296875 17.875 31.921875 
Q 16.609375 28.5625 16.609375 24.3125 
Q 16.609375 15.4375 20.921875 11.015625 
Q 25.25 6.59375 32.90625 6.59375 
Q 36.375 6.59375 39.625 7.375 
Q 42.875 8.15625 45.90625 9.71875 
z
" id="Consolas-99"/>
      <path d="M 42.78125 0 
L 42.78125 35.203125 
Q 42.78125 37.5 42.609375 38.96875 
Q 42.4375 40.4375 42.0625 41.28125 
Q 41.703125 42.140625 41.140625 42.484375 
Q 40.578125 42.828125 39.75 42.828125 
Q 38.765625 42.828125 37.9375 42.234375 
Q 37.109375 41.65625 36.15625 40.328125 
Q 35.203125 39.015625 34.046875 36.84375 
Q 32.90625 34.671875 31.34375 31.5 
L 31.34375 0 
L 23.578125 0 
L 23.578125 34.28125 
Q 23.578125 36.96875 23.40625 38.625 
Q 23.25 40.28125 22.875 41.203125 
Q 22.515625 42.140625 21.921875 42.484375 
Q 21.34375 42.828125 20.515625 42.828125 
Q 19.625 42.828125 18.84375 42.328125 
Q 18.0625 41.84375 17.109375 40.578125 
Q 16.15625 39.3125 14.984375 37.109375 
Q 13.8125 34.90625 12.203125 31.5 
L 12.203125 0 
L 4.390625 0 
L 4.390625 49.03125 
L 10.890625 49.03125 
L 11.28125 39.703125 
Q 12.546875 42.484375 13.734375 44.4375 
Q 14.9375 46.390625 16.203125 47.578125 
Q 17.484375 48.78125 18.921875 49.34375 
Q 20.359375 49.90625 22.125 49.90625 
Q 26.078125 49.90625 28.125 47.3125 
Q 30.171875 44.734375 30.171875 39.3125 
Q 31.34375 41.84375 32.46875 43.8125 
Q 33.59375 45.796875 34.890625 47.140625 
Q 36.1875 48.484375 37.75 49.1875 
Q 39.3125 49.90625 41.359375 49.90625 
Q 50.59375 49.90625 50.59375 35.6875 
L 50.59375 0 
z
" id="Consolas-109"/>
      <path d="M 7.8125 49.03125 
L 15.375 49.03125 
L 15.71875 41.109375 
Q 17.875 43.65625 19.875 45.328125 
Q 21.875 47.015625 23.796875 48.046875 
Q 25.734375 49.078125 27.734375 49.484375 
Q 29.734375 49.90625 31.890625 49.90625 
Q 39.453125 49.90625 43.328125 45.4375 
Q 47.21875 40.96875 47.21875 31.984375 
L 47.21875 0 
L 38.71875 0 
L 38.71875 31.296875 
Q 38.71875 37.0625 36.5625 39.8125 
Q 34.421875 42.578125 30.171875 42.578125 
Q 28.609375 42.578125 27.125 42.109375 
Q 25.640625 41.65625 24.015625 40.5 
Q 22.40625 39.359375 20.53125 37.40625 
Q 18.65625 35.453125 16.3125 32.515625 
L 16.3125 0 
L 7.8125 0 
z
" id="Consolas-110"/>
      <path d="M 47.3125 0.6875 
Q 44.4375 -0.046875 41.359375 -0.359375 
Q 38.28125 -0.6875 35.109375 -0.6875 
Q 25.875 -0.6875 21.328125 3.484375 
Q 16.796875 7.671875 16.796875 16.3125 
L 16.796875 41.890625 
L 3.078125 41.890625 
L 3.078125 49.03125 
L 16.796875 49.03125 
L 16.796875 62.5 
L 25.296875 64.703125 
L 25.296875 49.03125 
L 47.3125 49.03125 
L 47.3125 41.890625 
L 25.296875 41.890625 
L 25.296875 17 
Q 25.296875 11.71875 28.09375 9.109375 
Q 30.90625 6.5 36.375 6.5 
Q 38.71875 6.5 41.5 6.859375 
Q 44.28125 7.234375 47.3125 8.015625 
z
" id="Consolas-116"/>
      <path id="Consolas-32"/>
      <path d="M 9.8125 49.03125 
L 17.578125 49.03125 
L 17.828125 39.984375 
Q 22.171875 45.21875 26.390625 47.5625 
Q 30.609375 49.90625 34.90625 49.90625 
Q 42.53125 49.90625 46.453125 44.96875 
Q 50.390625 40.046875 50.09375 30.328125 
L 41.5 30.328125 
Q 41.65625 36.765625 39.625 39.671875 
Q 37.59375 42.578125 33.6875 42.578125 
Q 31.984375 42.578125 30.25 41.96875 
Q 28.515625 41.359375 26.6875 40.015625 
Q 24.859375 38.671875 22.796875 36.5625 
Q 20.75 34.46875 18.40625 31.5 
L 18.40625 0 
L 9.8125 0 
z
" id="Consolas-114"/>
      <path d="M 24.515625 62.015625 
L 10.015625 62.015625 
L 10.015625 69 
L 33.109375 69 
L 33.109375 7.078125 
L 47.703125 7.078125 
L 47.703125 0 
L 8.40625 0 
L 8.40625 7.078125 
L 24.515625 7.078125 
z
" id="Consolas-108"/>
      <path d="M 46.625 13.375 
Q 46.625 10.796875 45.75 8.734375 
Q 44.875 6.6875 43.359375 5.09375 
Q 41.84375 3.515625 39.84375 2.390625 
Q 37.84375 1.265625 35.5625 0.53125 
Q 33.296875 -0.203125 30.90625 -0.53125 
Q 28.515625 -0.875 26.21875 -0.875 
Q 21.234375 -0.875 17.0625 -0.4375 
Q 12.890625 0 8.890625 0.984375 
L 8.890625 8.796875 
Q 13.1875 7.5625 17.4375 6.921875 
Q 21.6875 6.296875 25.875 6.296875 
Q 31.984375 6.296875 34.90625 7.953125 
Q 37.84375 9.625 37.84375 12.703125 
Q 37.84375 14.015625 37.375 15.0625 
Q 36.921875 16.109375 35.6875 17.0625 
Q 34.46875 18.015625 31.90625 19.03125 
Q 29.34375 20.0625 24.90625 21.390625 
Q 21.578125 22.359375 18.765625 23.609375 
Q 15.96875 24.859375 13.90625 26.5625 
Q 11.859375 28.265625 10.6875 30.5625 
Q 9.515625 32.859375 9.515625 35.984375 
Q 9.515625 38.03125 10.46875 40.46875 
Q 11.421875 42.921875 13.71875 45.015625 
Q 16.015625 47.125 19.921875 48.515625 
Q 23.828125 49.90625 29.6875 49.90625 
Q 32.5625 49.90625 36.078125 49.578125 
Q 39.59375 49.265625 43.40625 48.484375 
L 43.40625 40.921875 
Q 39.40625 41.890625 35.8125 42.359375 
Q 32.234375 42.828125 29.59375 42.828125 
Q 26.421875 42.828125 24.25 42.328125 
Q 22.078125 41.84375 20.734375 40.984375 
Q 19.390625 40.140625 18.796875 38.984375 
Q 18.21875 37.84375 18.21875 36.53125 
Q 18.21875 35.203125 18.71875 34.125 
Q 19.234375 33.0625 20.625 32.0625 
Q 22.015625 31.0625 24.5 30.046875 
Q 27 29.046875 31 27.875 
Q 35.359375 26.609375 38.328125 25.21875 
Q 41.3125 23.828125 43.15625 22.109375 
Q 45.015625 20.40625 45.8125 18.25 
Q 46.625 16.109375 46.625 13.375 
z
" id="Consolas-115"/>
      <path d="M 50.484375 24.90625 
Q 50.484375 19.1875 48.875 14.421875 
Q 47.265625 9.671875 44.234375 6.265625 
Q 41.21875 2.875 36.859375 1 
Q 32.515625 -0.875 27 -0.875 
Q 21.734375 -0.875 17.546875 0.75 
Q 13.375 2.390625 10.46875 5.5625 
Q 7.5625 8.734375 6.03125 13.421875 
Q 4.5 18.109375 4.5 24.21875 
Q 4.5 29.9375 6.109375 34.640625 
Q 7.71875 39.359375 10.734375 42.75 
Q 13.765625 46.140625 18.109375 48.015625 
Q 22.46875 49.90625 27.984375 49.90625 
Q 33.25 49.90625 37.421875 48.265625 
Q 41.609375 46.625 44.5 43.46875 
Q 47.40625 40.328125 48.9375 35.640625 
Q 50.484375 30.953125 50.484375 24.90625 
z
M 41.796875 24.515625 
Q 41.796875 29.046875 40.796875 32.4375 
Q 39.796875 35.84375 37.9375 38.109375 
Q 36.078125 40.375 33.421875 41.515625 
Q 30.765625 42.671875 27.484375 42.671875 
Q 23.6875 42.671875 20.96875 41.1875 
Q 18.265625 39.703125 16.53125 37.203125 
Q 14.796875 34.71875 13.984375 31.421875 
Q 13.1875 28.125 13.1875 24.515625 
Q 13.1875 19.96875 14.1875 16.546875 
Q 15.1875 13.140625 17.03125 10.859375 
Q 18.890625 8.59375 21.53125 7.4375 
Q 24.171875 6.296875 27.484375 6.296875 
Q 31.296875 6.296875 34 7.78125 
Q 36.71875 9.28125 38.453125 11.765625 
Q 40.1875 14.265625 40.984375 17.546875 
Q 41.796875 20.84375 41.796875 24.515625 
z
" id="Consolas-111"/>
     </defs>
     <use xlink:href="#Consolas-67"/>
     <use x="54.980469" xlink:href="#Consolas-104"/>
     <use x="109.960938" xlink:href="#Consolas-101"/>
     <use x="164.941406" xlink:href="#Consolas-118"/>
     <use x="219.921875" xlink:href="#Consolas-97"/>
     <use x="274.902344" xlink:href="#Consolas-117"/>
     <use x="329.882812" xlink:href="#Consolas-99"/>
     <use x="384.863281" xlink:href="#Consolas-104"/>
     <use x="439.84375" xlink:href="#Consolas-101"/>
     <use x="494.824219" xlink:href="#Consolas-109"/>
     <use x="549.804688" xlink:href="#Consolas-101"/>
     <use x="604.785156" xlink:href="#Consolas-110"/>
     <use x="659.765625" xlink:href="#Consolas-116"/>
     <use x="714.746094" xlink:href="#Consolas-32"/>
     <use x="769.726562" xlink:href="#Consolas-101"/>
     <use x="824.707031" xlink:href="#Consolas-110"/>
     <use x="879.6875" xlink:href="#Consolas-116"/>
     <use x="934.667969" xlink:href="#Consolas-114"/>
     <use x="989.648438" xlink:href="#Consolas-101"/>
     <use x="1044.628906" xlink:href="#Consolas-32"/>
     <use x="1099.609375" xlink:href="#Consolas-108"/>
     <use x="1154.589844" xlink:href="#Consolas-101"/>
     <use x="1209.570312" xlink:href="#Consolas-115"/>
     <use x="1264.550781" xlink:href="#Consolas-32"/>
     <use x="1319.53125" xlink:href="#Consolas-115"/>
     <use x="1374.511719" xlink:href="#Consolas-111"/>
     <use x="1429.492188" xlink:href="#Consolas-117"/>
     <use x="1484.472656" xlink:href="#Consolas-114"/>
     <use x="1539.453125" xlink:href="#Consolas-99"/>
     <use x="1594.433594" xlink:href="#Consolas-101"/>
     <use x="1649.414062" xlink:href="#Consolas-115"/>
    </g>
   </g>
   <g id="legend_1">
    <g id="patch_6">
     <path d="M 588.700781 142.646719 
L 809 142.646719 
Q 811.6 142.646719 811.6 140.046719 
L 811.6 68.5 
Q 811.6 65.9 809 65.9 
L 588.700781 65.9 
Q 586.100781 65.9 586.100781 68.5 
L 586.100781 140.046719 
Q 586.100781 142.646719 588.700781 142.646719 
z
" style="fill:#ffffff;opacity:0.8;stroke:#cccccc;stroke-linejoin:miter;"/>
    </g>
    <g id="patch_7">
     <path d="M 591.300781 80.2 
L 617.300781 80.2 
L 617.300781 71.1 
L 591.300781 71.1 
z
" style="fill:#440154;fill-opacity:0.4;stroke:#440154;stroke-linejoin:miter;stroke-opacity:0.7;"/>
    </g>
    <g id="text_17">
     <!-- Inathèque -->
     <g style="fill:#262626;" transform="translate(627.700781 80.2)scale(0.13 -0.13)">
      <defs>
       <path d="M 23.09375 56.5 
L 8.40625 56.5 
L 8.40625 63.8125 
L 46.578125 63.8125 
L 46.578125 56.5 
L 31.890625 56.5 
L 31.890625 7.421875 
L 46.578125 7.421875 
L 46.578125 0 
L 8.40625 0 
L 8.40625 7.421875 
L 23.09375 7.421875 
z
" id="Consolas-73"/>
       <path d="M 49.21875 27.09375 
Q 49.21875 25.296875 49.171875 24.078125 
Q 49.125 22.859375 49.03125 21.78125 
L 14.59375 21.78125 
Q 14.59375 14.265625 18.796875 10.234375 
Q 23 6.203125 30.90625 6.203125 
Q 33.0625 6.203125 35.203125 6.375 
Q 37.359375 6.546875 39.359375 6.828125 
Q 41.359375 7.125 43.1875 7.484375 
Q 45.015625 7.859375 46.578125 8.296875 
L 46.578125 1.3125 
Q 43.109375 0.34375 38.734375 -0.265625 
Q 34.375 -0.875 29.6875 -0.875 
Q 23.390625 -0.875 18.84375 0.828125 
Q 14.3125 2.546875 11.40625 5.78125 
Q 8.5 9.03125 7.109375 13.734375 
Q 5.71875 18.453125 5.71875 24.421875 
Q 5.71875 29.59375 7.203125 34.203125 
Q 8.6875 38.8125 11.546875 42.296875 
Q 14.40625 45.796875 18.546875 47.84375 
Q 22.703125 49.90625 27.984375 49.90625 
Q 33.109375 49.90625 37.0625 48.296875 
Q 41.015625 46.6875 43.71875 43.71875 
Q 46.4375 40.765625 47.828125 36.546875 
Q 49.21875 32.328125 49.21875 27.09375 
z
M 40.375 28.328125 
Q 40.53125 31.59375 39.75 34.296875 
Q 38.96875 37.015625 37.328125 38.96875 
Q 35.6875 40.921875 33.25 42.015625 
Q 30.8125 43.109375 27.59375 43.109375 
Q 24.8125 43.109375 22.515625 42.03125 
Q 20.21875 40.96875 18.546875 39.015625 
Q 16.890625 37.0625 15.859375 34.328125 
Q 14.84375 31.59375 14.59375 28.328125 
z
M 32.625 57.171875 
L 24.125 57.171875 
L 8.5 69 
L 20.796875 69 
z
M 0 49.03125 
z
" id="Consolas-232"/>
       <path d="M 5.328125 23.484375 
Q 5.328125 28.765625 6.71875 33.5 
Q 8.109375 38.234375 11.015625 41.8125 
Q 13.921875 45.40625 18.453125 47.5 
Q 23 49.609375 29.296875 49.609375 
Q 31.78125 49.609375 34.21875 49.21875 
Q 36.671875 48.828125 39.40625 48 
L 46.921875 49.90625 
L 46.921875 -20.015625 
L 38.375 -20.015625 
L 38.375 -1.515625 
L 38.8125 8.984375 
Q 31.890625 -0.875 22.3125 -0.875 
Q 18.015625 -0.875 14.84375 0.875 
Q 11.671875 2.640625 9.546875 5.859375 
Q 7.421875 9.078125 6.375 13.5625 
Q 5.328125 18.0625 5.328125 23.484375 
z
M 14.015625 24.03125 
Q 14.015625 19.921875 14.625 16.640625 
Q 15.234375 13.375 16.46875 11.109375 
Q 17.71875 8.84375 19.59375 7.609375 
Q 21.484375 6.390625 24.03125 6.390625 
Q 27.25 6.390625 30.828125 9.265625 
Q 34.421875 12.15625 38.375 17.828125 
L 38.375 40.578125 
Q 36.421875 41.5 33.953125 42.078125 
Q 31.5 42.671875 28.71875 42.671875 
Q 21.53125 42.671875 17.765625 37.9375 
Q 14.015625 33.203125 14.015625 24.03125 
z
" id="Consolas-113"/>
      </defs>
      <use xlink:href="#Consolas-73"/>
      <use x="54.980469" xlink:href="#Consolas-110"/>
      <use x="109.960938" xlink:href="#Consolas-97"/>
      <use x="164.941406" xlink:href="#Consolas-116"/>
      <use x="219.921875" xlink:href="#Consolas-104"/>
      <use x="274.902344" xlink:href="#Consolas-232"/>
      <use x="329.882812" xlink:href="#Consolas-113"/>
      <use x="384.863281" xlink:href="#Consolas-117"/>
      <use x="439.84375" xlink:href="#Consolas-101"/>
     </g>
    </g>
    <g id="patch_8">
     <path d="M 591.300781 98.402031 
L 617.300781 98.402031 
L 617.300781 89.302031 
L 591.300781 89.302031 
z
" style="fill:#31688e;fill-opacity:0.4;stroke:#31688e;stroke-linejoin:miter;stroke-opacity:0.7;"/>
    </g>
    <g id="text_18">
     <!-- les-maitres-du-mystere.fr -->
     <g style="fill:#262626;" transform="translate(627.700781 98.402031)scale(0.13 -0.13)">
      <defs>
       <path d="M 42.09375 22.609375 
L 12.890625 22.609375 
L 12.890625 30.609375 
L 42.09375 30.609375 
z
" id="Consolas-45"/>
       <path d="M 24.515625 42 
L 10.015625 42 
L 10.015625 49.03125 
L 33.109375 49.03125 
L 33.109375 7.078125 
L 47.703125 7.078125 
L 47.703125 0 
L 8.40625 0 
L 8.40625 7.078125 
L 24.515625 7.078125 
z
M 27.484375 69.578125 
Q 28.90625 69.578125 30.125 69.0625 
Q 31.34375 68.5625 32.25 67.625 
Q 33.15625 66.703125 33.671875 65.5 
Q 34.1875 64.3125 34.1875 62.890625 
Q 34.1875 61.53125 33.671875 60.296875 
Q 33.15625 59.078125 32.25 58.15625 
Q 31.34375 57.234375 30.125 56.71875 
Q 28.90625 56.203125 27.484375 56.203125 
Q 26.078125 56.203125 24.859375 56.71875 
Q 23.640625 57.234375 22.734375 58.15625 
Q 21.828125 59.078125 21.3125 60.296875 
Q 20.796875 61.53125 20.796875 62.890625 
Q 20.796875 64.3125 21.3125 65.5 
Q 21.828125 66.703125 22.734375 67.625 
Q 23.640625 68.5625 24.859375 69.0625 
Q 26.078125 69.578125 27.484375 69.578125 
z
" id="Consolas-105"/>
       <path d="M 5.328125 23.484375 
Q 5.328125 29.734375 7.03125 34.59375 
Q 8.734375 39.453125 11.890625 42.796875 
Q 15.046875 46.140625 19.453125 47.875 
Q 23.875 49.609375 29.296875 49.609375 
Q 31.640625 49.609375 33.90625 49.3125 
Q 36.1875 49.03125 38.375 48.390625 
L 38.375 69 
L 46.921875 69 
L 46.921875 0 
L 39.3125 0 
L 39.015625 9.28125 
Q 35.453125 4.109375 31.296875 1.609375 
Q 27.15625 -0.875 22.3125 -0.875 
Q 18.109375 -0.875 14.90625 0.875 
Q 11.71875 2.640625 9.59375 5.828125 
Q 7.46875 9.03125 6.390625 13.515625 
Q 5.328125 18.015625 5.328125 23.484375 
z
M 14.015625 24.03125 
Q 14.015625 15.140625 16.625 10.765625 
Q 19.234375 6.390625 24.03125 6.390625 
Q 27.25 6.390625 30.828125 9.265625 
Q 34.421875 12.15625 38.375 17.828125 
L 38.375 40.578125 
Q 36.28125 41.546875 33.734375 42.0625 
Q 31.203125 42.578125 28.71875 42.578125 
Q 21.78125 42.578125 17.890625 38.078125 
Q 14.015625 33.59375 14.015625 24.03125 
z
" id="Consolas-100"/>
       <path d="M 51.421875 49.03125 
L 34.71875 5.171875 
Q 32.125 -1.515625 29.359375 -6.34375 
Q 26.609375 -11.1875 23.328125 -14.28125 
Q 20.0625 -17.390625 16.15625 -18.84375 
Q 12.25 -20.3125 7.421875 -20.3125 
Q 6.15625 -20.3125 5.125 -20.265625 
Q 4.109375 -20.21875 2.875 -20.125 
L 2.875 -12.40625 
Q 3.953125 -12.546875 5.21875 -12.671875 
Q 6.5 -12.796875 7.90625 -12.796875 
Q 10.25 -12.796875 12.28125 -12.109375 
Q 14.3125 -11.421875 16.109375 -9.875 
Q 17.921875 -8.34375 19.578125 -5.90625 
Q 21.234375 -3.46875 22.796875 0 
L 3.21875 49.03125 
L 12.890625 49.03125 
L 25.296875 16.609375 
L 27.78125 8.984375 
L 30.609375 16.796875 
L 42.09375 49.03125 
z
" id="Consolas-121"/>
       <path d="M 27.09375 15.375 
Q 28.765625 15.375 30.25 14.734375 
Q 31.734375 14.109375 32.828125 12.984375 
Q 33.9375 11.859375 34.5625 10.375 
Q 35.203125 8.890625 35.203125 7.171875 
Q 35.203125 5.515625 34.5625 4.046875 
Q 33.9375 2.59375 32.828125 1.484375 
Q 31.734375 0.390625 30.25 -0.234375 
Q 28.765625 -0.875 27.09375 -0.875 
Q 25.390625 -0.875 23.921875 -0.234375 
Q 22.46875 0.390625 21.359375 1.484375 
Q 20.265625 2.59375 19.625 4.046875 
Q 19 5.515625 19 7.171875 
Q 19 8.890625 19.625 10.375 
Q 20.265625 11.859375 21.359375 12.984375 
Q 22.46875 14.109375 23.921875 14.734375 
Q 25.390625 15.375 27.09375 15.375 
z
" id="Consolas-46"/>
       <path d="M 51.3125 61.078125 
Q 44.625 62.5 39.796875 62.5 
Q 28.328125 62.5 28.328125 50.484375 
L 28.328125 41.890625 
L 49.8125 41.890625 
L 49.8125 34.8125 
L 28.328125 34.8125 
L 28.328125 0 
L 19.671875 0 
L 19.671875 34.8125 
L 3.90625 34.8125 
L 3.90625 41.890625 
L 19.671875 41.890625 
L 19.671875 50 
Q 19.671875 69.578125 40.09375 69.578125 
Q 45.171875 69.578125 51.3125 68.40625 
z
M 0 49.03125 
z
" id="Consolas-102"/>
      </defs>
      <use xlink:href="#Consolas-108"/>
      <use x="54.980469" xlink:href="#Consolas-101"/>
      <use x="109.960938" xlink:href="#Consolas-115"/>
      <use x="164.941406" xlink:href="#Consolas-45"/>
      <use x="219.921875" xlink:href="#Consolas-109"/>
      <use x="274.902344" xlink:href="#Consolas-97"/>
      <use x="329.882812" xlink:href="#Consolas-105"/>
      <use x="384.863281" xlink:href="#Consolas-116"/>
      <use x="439.84375" xlink:href="#Consolas-114"/>
      <use x="494.824219" xlink:href="#Consolas-101"/>
      <use x="549.804688" xlink:href="#Consolas-115"/>
      <use x="604.785156" xlink:href="#Consolas-45"/>
      <use x="659.765625" xlink:href="#Consolas-100"/>
      <use x="714.746094" xlink:href="#Consolas-117"/>
      <use x="769.726562" xlink:href="#Consolas-45"/>
      <use x="824.707031" xlink:href="#Consolas-109"/>
      <use x="879.6875" xlink:href="#Consolas-121"/>
      <use x="934.667969" xlink:href="#Consolas-115"/>
      <use x="989.648438" xlink:href="#Consolas-116"/>
      <use x="1044.628906" xlink:href="#Consolas-101"/>
      <use x="1099.609375" xlink:href="#Consolas-114"/>
      <use x="1154.589844" xlink:href="#Consolas-101"/>
      <use x="1209.570312" xlink:href="#Consolas-46"/>
      <use x="1264.550781" xlink:href="#Consolas-102"/>
      <use x="1319.53125" xlink:href="#Consolas-114"/>
     </g>
    </g>
    <g id="patch_9">
     <path d="M 591.300781 116.642656 
L 617.300781 116.642656 
L 617.300781 107.542656 
L 591.300781 107.542656 
z
" style="fill:#35b779;fill-opacity:0.4;stroke:#35b779;stroke-linejoin:miter;stroke-opacity:0.7;"/>
    </g>
    <g id="text_19">
     <!-- YouTube -->
     <g style="fill:#262626;" transform="translate(627.700781 116.642656)scale(0.13 -0.13)">
      <defs>
       <path d="M 54.984375 63.8125 
L 31.890625 22.796875 
L 31.890625 0 
L 23.09375 0 
L 23.09375 23 
L 0 63.8125 
L 10.5 63.8125 
L 23.1875 40.484375 
L 27.875 31.109375 
L 32.171875 39.59375 
L 45.015625 63.8125 
z
" id="Consolas-89"/>
       <path d="M 50.78125 56.390625 
L 31.890625 56.390625 
L 31.890625 0 
L 23.09375 0 
L 23.09375 56.390625 
L 4.203125 56.390625 
L 4.203125 63.8125 
L 50.78125 63.8125 
z
" id="Consolas-84"/>
       <path d="M 49.703125 25.390625 
Q 49.703125 19.28125 48.015625 14.46875 
Q 46.34375 9.671875 43.234375 6.328125 
Q 40.140625 2.984375 35.6875 1.1875 
Q 31.25 -0.59375 25.6875 -0.59375 
Q 21.34375 -0.59375 16.796875 0.234375 
Q 12.25 1.078125 7.8125 2.875 
L 7.8125 69 
L 16.3125 69 
L 16.3125 50 
L 15.921875 40.921875 
Q 19.578125 45.84375 23.75 47.875 
Q 27.9375 49.90625 32.71875 49.90625 
Q 36.921875 49.90625 40.09375 48.140625 
Q 43.265625 46.390625 45.40625 43.1875 
Q 47.5625 39.984375 48.625 35.46875 
Q 49.703125 30.953125 49.703125 25.390625 
z
M 41.015625 25 
Q 41.015625 28.859375 40.453125 32.078125 
Q 39.890625 35.296875 38.671875 37.59375 
Q 37.453125 39.890625 35.546875 41.1875 
Q 33.640625 42.484375 31 42.484375 
Q 29.390625 42.484375 27.734375 41.96875 
Q 26.078125 41.453125 24.296875 40.25 
Q 22.515625 39.0625 20.53125 37.078125 
Q 18.5625 35.109375 16.3125 32.171875 
L 16.3125 8.40625 
Q 18.796875 7.421875 21.375 6.859375 
Q 23.96875 6.296875 26.3125 6.296875 
Q 29.25 6.296875 31.90625 7.21875 
Q 34.578125 8.15625 36.59375 10.328125 
Q 38.625 12.5 39.8125 16.078125 
Q 41.015625 19.671875 41.015625 25 
z
" id="Consolas-98"/>
      </defs>
      <use xlink:href="#Consolas-89"/>
      <use x="54.980469" xlink:href="#Consolas-111"/>
      <use x="109.960938" xlink:href="#Consolas-117"/>
      <use x="164.941406" xlink:href="#Consolas-84"/>
      <use x="219.921875" xlink:href="#Consolas-117"/>
      <use x="274.902344" xlink:href="#Consolas-98"/>
      <use x="329.882812" xlink:href="#Consolas-101"/>
     </g>
    </g>
    <g id="patch_10">
     <path d="M 591.300781 134.844688 
L 617.300781 134.844688 
L 617.300781 125.744688 
L 591.300781 125.744688 
z
" style="fill:#fde725;fill-opacity:0.4;stroke:#fde725;stroke-linejoin:miter;stroke-opacity:0.7;"/>
    </g>
    <g id="text_20">
     <!-- madelen -->
     <g style="fill:#262626;" transform="translate(627.700781 134.844688)scale(0.13 -0.13)">
      <use xlink:href="#Consolas-109"/>
      <use x="54.980469" xlink:href="#Consolas-97"/>
      <use x="109.960938" xlink:href="#Consolas-100"/>
      <use x="164.941406" xlink:href="#Consolas-101"/>
      <use x="219.921875" xlink:href="#Consolas-108"/>
      <use x="274.902344" xlink:href="#Consolas-101"/>
      <use x="329.882812" xlink:href="#Consolas-110"/>
     </g>
    </g>
   </g>
  </g>
 </g>
 <defs>
  <clipPath id="p232828333f">
   <rect height="772.2" width="772.2" x="45.9" y="59.4"/>
  </clipPath>
 </defs>
</svg>
