<?xml version="1.0" standalone="no"?>
<!DOCTYPE svg PUBLIC "-//W3C//DTD SVG 20010904//EN"
 "http://www.w3.org/TR/2001/REC-SVG-20010904/DTD/svg10.dtd">
<svg version="1.0" xmlns="http://www.w3.org/2000/svg"
 width="500.000000pt" height="500.000000pt" viewBox="0 0 500.000000 500.000000"
 preserveAspectRatio="xMidYMid meet">
<metadata>
Created by potrace 1.14, written by Peter Selinger 2001-2017
</metadata>
<g transform="translate(0.000000,500.000000) scale(0.100000,-0.100000)"
fill="#000000" stroke="none">
<path d="M4280 3913 c-14 -2 -45 -8 -70 -14 -25 -6 -54 -13 -66 -15 -12 -2
-60 -20 -108 -39 -48 -19 -90 -35 -93 -35 -3 0 -3 14 1 30 3 17 2 31 -2 31
-102 19 -451 -88 -587 -180 l-42 -28 23 56 c14 35 19 60 14 65 -25 25 -212
-70 -342 -174 -28 -22 -55 -40 -59 -40 -5 0 -9 12 -9 26 0 22 -3 24 -22 18
-50 -15 -183 -114 -306 -229 -76 -71 -82 -73 -82 -32 0 23 -6 37 -16 41 -24 9
-49 -13 -203 -184 -68 -75 -75 -80 -82 -61 -5 11 -12 21 -17 21 -10 0 -205
-199 -327 -334 -44 -48 -96 -106 -117 -128 -41 -44 -79 -56 -257 -81 -298 -41
-519 15 -678 172 -57 56 -157 186 -199 259 -21 37 -25 38 -46 15 -24 -29 -47
-101 -65 -203 -16 -94 -8 -415 12 -490 2 -8 7 -29 9 -46 11 -63 59 -191 111
-297 74 -149 74 -172 2 -241 -30 -28 -60 -55 -68 -61 -8 -5 -30 -22 -49 -36
-19 -14 -120 -84 -225 -154 -252 -170 -295 -202 -304 -228 -12 -30 3 -55 43
-74 30 -14 37 -14 62 0 169 89 398 204 456 228 40 17 100 33 133 36 33 3 73
12 88 20 27 13 31 13 65 -11 21 -13 66 -52 102 -85 36 -33 86 -72 113 -86 l48
-27 27 30 c28 30 107 206 176 392 75 203 86 226 109 217 21 -8 14 -33 -88
-297 -100 -261 -134 -366 -142 -446 -5 -56 -4 -62 18 -78 49 -34 80 -23 238
77 139 88 140 88 216 17 35 -32 85 -70 112 -84 47 -23 133 -45 164 -41 8 1 37
5 64 9 145 18 335 121 745 401 277 189 473 285 711 347 116 31 357 31 435 1
13 -5 14 1 9 38 -53 364 -255 591 -625 703 -47 14 -145 37 -219 51 -162 32
-181 39 -181 64 0 26 18 37 65 40 49 3 111 19 147 37 62 32 74 70 33 106 -14
12 -25 29 -25 39 0 30 27 42 128 54 23 3 61 7 85 10 118 15 177 49 162 95 -6
20 8 33 40 37 81 10 154 32 245 74 111 51 184 74 265 85 85 11 102 28 64 63
-11 10 -17 21 -12 24 8 5 125 20 153 20 38 -1 153 29 235 60 127 48 215 68
291 66 81 -3 154 -34 172 -73 8 -19 18 -26 28 -22 9 3 19 6 24 6 4 0 4 20 -1
45 -35 187 -243 313 -564 341 -87 8 -88 8 -70 44 17 32 16 33 -30 42 -11 2
-31 2 -45 1z m-119 -141 l10 -28 114 1 c200 3 400 -31 518 -90 92 -45 83 -56
-48 -60 -93 -2 -132 -9 -250 -43 -148 -42 -292 -75 -490 -112 -66 -12 -123
-24 -127 -27 -4 -2 -1 -15 8 -28 19 -30 13 -41 -27 -50 -17 -4 -104 -31 -194
-60 -172 -57 -289 -85 -352 -85 -47 0 -113 -18 -113 -30 0 -13 42 -40 52 -34
15 9 55 -5 62 -21 8 -22 -22 -31 -124 -39 -68 -5 -92 -12 -121 -32 -28 -19
-66 -30 -155 -45 -139 -22 -174 -34 -174 -60 0 -26 53 -38 177 -40 57 -2 108
-6 115 -10 19 -12 -28 -26 -108 -34 -142 -13 -196 -23 -206 -38 -12 -19 -10
-24 17 -45 21 -17 33 -39 23 -43 -14 -5 -483 -9 -495 -5 -22 9 24 51 182 169
243 180 566 361 833 465 213 84 598 203 727 225 17 3 53 10 82 16 29 6 74 13
100 16 26 4 59 8 73 11 113 19 336 22 422 6 51 -10 81 -1 61 19 -42 42 -410
44 -623 4 -9 -2 -43 -7 -75 -11 -33 -4 -62 -8 -65 -9 -3 -1 -18 -4 -35 -8 -16
-4 -41 -9 -55 -11 -372 -65 -864 -252 -1220 -464 -208 -124 -356 -236 -521
-392 -38 -36 -61 -50 -83 -51 -17 -1 -42 -2 -56 -4 -143 -15 -146 -10 -63 85
97 112 146 158 140 133 -3 -12 2 -31 10 -42 14 -21 15 -20 56 31 24 29 66 85
95 124 29 39 73 91 99 115 l47 43 8 -32 c15 -55 20 -51 213 137 115 112 184
171 199 171 4 0 6 -8 5 -17 -6 -67 31 -58 151 35 188 144 224 171 228 167 2
-2 -5 -23 -16 -47 -32 -70 -35 -87 -18 -94 8 -3 96 37 198 90 228 118 408 192
408 167 0 -4 -14 -34 -32 -66 l-31 -58 31 6 c18 4 87 32 155 63 106 50 214 92
240 93 4 1 12 -12 18 -27z m-2804 -1352 c58 -12 107 -32 117 -48 3 -5 -30 -3
-72 4 -42 7 -121 12 -175 12 -144 -1 -250 -30 -407 -109 -41 -21 -77 -36 -80
-32 -16 16 136 121 225 154 96 35 271 44 392 19z m1296 -24 c69 -23 118 -60
143 -108 16 -31 19 -88 4 -88 -5 0 -10 4 -10 9 0 21 -94 111 -137 132 -84 40
-190 52 -298 35 -99 -17 -290 -99 -416 -181 -179 -116 -291 -293 -292 -464 -1
-163 114 -275 283 -275 114 0 290 55 467 146 40 21 73 34 73 29 0 -20 -73 -71
-166 -116 -323 -156 -539 -170 -652 -41 -41 47 -56 102 -56 211 -1 133 15 203
65 291 92 161 337 339 554 401 165 48 330 55 438 19z m-244 -181 c86 -10 158
-54 145 -88 -8 -22 -96 -62 -166 -76 -94 -20 -234 -7 -315 29 -47 21 -56 46
-25 73 26 23 121 55 190 63 31 3 58 8 60 9 2 2 15 2 30 0 15 -2 51 -6 81 -10z
m-1260 -63 c-13 -20 -141 -106 -180 -121 -44 -16 -99 5 -99 38 0 35 48 64 153
91 109 29 148 27 126 -8z m219 -9 c30 -18 28 -46 -5 -76 -147 -134 -185 -166
-333 -278 -47 -36 -136 -103 -198 -148 -107 -79 -114 -82 -144 -72 -29 10 -41
6 -172 -63 -78 -41 -163 -86 -191 -101 -57 -31 -208 -95 -224 -95 -38 0 20 45
286 223 95 64 266 185 380 270 115 84 250 182 301 216 52 35 101 69 110 77 76
64 137 79 190 47z"/>
</g>
</svg>
